# xmcd
#
# Track frame offsets:
# 150
# 21016
# 37509
# 59609
# 76112
# 95211
# 114315
# 129202
# 150766
# 166105
# 179899
# 195867
# 212947
#
# Disc length: 3023 seconds
#
#
# Revision: 0
# Processed by: cddbd v1.5.2PL0 Copyright (c) Steve Scherf et al.
# Submitted via: FreeRIP 2.945 
#
DISCID=970bcd0d
DTITLE=Vandeerlei Rodrigo - Bombom Assassino
DYEAR=1900
DGENRE=Avantgarde
TTITLE0=Coração Financiado
TTITLE1=Bombom Assassino
TTITLE2=Eu Vou ou Você Vai
TTITLE3=Aquela dos Olhos Claros
TTITLE4=Bar da Esquina
TTITLE5=Conhaque de Alcatrão
TTITLE6=Palavras
TTITLE7=Se Amando pra Valer
TTITLE8=Escrito com Batom
TTITLE9=Você Só me Faz Sofrer
TTITLE10=Mate y Terere
TTITLE11=Em Nome do Amor
TTITLE12=Só pra Namorar
EXTD=
EXTT0=
EXTT1=
EXTT2=
EXTT3=
EXTT4=
EXTT5=
EXTT6=
EXTT7=
EXTT8=
EXTT9=
EXTT10=
EXTT11=
EXTT12=
PLAYORDER=
